<svg version="1.1" xmlns="http://www.w3.org/2000/svg" xmlns:xlink="http://www.w3.org/1999/xlink" width="127.63331" height="129.15569" viewBox="0,0,127.63331,129.15569"><g transform="translate(-176.18335,-115.42215)"><g data-paper-data="{&quot;isPaintingLayer&quot;:true}" fill-rule="nonzero" stroke-linejoin="miter" stroke-miterlimit="10" stroke-dasharray="" stroke-dashoffset="0" style="mix-blend-mode: normal"><path d="M183.81665,241.82784l12.87501,-18.75l4,-24l13,21l4.12499,22.75" fill="none" stroke="#000000" stroke-width="3.5" stroke-linecap="round"/><path d="M201.06665,198.57784l4,-53" fill="none" stroke="#000000" stroke-width="3.5" stroke-linecap="round"/><path d="M195.81665,178.39034l-16.75,-10.75l25.75,-23l7.25,23.25l18,10.25" fill="none" stroke="#000000" stroke-width="3.5" stroke-linecap="round"/><path d="M193.22736,130.97962c0,-6.94301 5.62842,-12.57143 12.57143,-12.57143c6.94301,0 12.57143,5.62842 12.57143,12.57143c0,6.94301 -5.62842,12.57143 -12.57143,12.57143c-6.94301,0 -12.57143,-5.62842 -12.57143,-12.57143z" fill="#000000" stroke="none" stroke-width="0" stroke-linecap="butt"/><path d="M198.03656,126.19762l-0.51877,15.12372" fill="none" stroke="#9e7d7d" stroke-width="1.5" stroke-linecap="round"/><path d="M218.56898,124.87069c0.33229,3.19534 -7.32653,-0.17143 -14.81241,0.37835c-6.49593,0.47708 -12.91541,5.30788 -13.20376,2.5351c-0.62063,-5.96812 5.14788,-11.45844 12.88433,-12.26296c7.73645,-0.80453 14.51121,3.38139 15.13184,9.34952z" fill="#ff0000" stroke="none" stroke-width="0" stroke-linecap="butt"/><g><path d="M200.08093,171.85022l-20.73348,8.21191l-0.65996,-8.57698z" fill="#ad5555" stroke="#000000" stroke-width="0" stroke-linecap="round"/><g><path d="M206.74672,186.28027l-3.78174,-13.47428l4.11633,-0.77977l3.78174,13.47428z" fill="#6f6f6f" stroke="none" stroke-width="0" stroke-linecap="butt"/><path d="M277.68541,171.51411l-28.08471,0.55787" fill="none" stroke="#a1a1a1" stroke-width="1.5" stroke-linecap="round"/><path d="M265.33558,172.13405l-85.3642,0.12675" fill="none" stroke="#ad5555" stroke-width="3.5" stroke-linecap="round"/><path d="M244.9347,169.64254l-28.08471,0.55787" fill="none" stroke="#a1a1a1" stroke-width="1.5" stroke-linecap="round"/><path d="M195.85264,181.40609l1.52543,-7.56196l1.26033,0.25424l-1.52545,7.56195z" fill="none" stroke="#a1a1a1" stroke-width="1.5" stroke-linecap="butt"/></g></g><path d="M277.44166,170.32467l13.85805,-9.61123l-0.10046,6.53096l12.61741,1.29213l-13.26343,4.44605l5.66385,6.28276z" fill="#fff6b9" stroke="none" stroke-width="0" stroke-linecap="butt"/></g></g></svg>