<svg version="1.1" xmlns="http://www.w3.org/2000/svg" xmlns:xlink="http://www.w3.org/1999/xlink" width="101.95501" height="128.27566" viewBox="0,0,101.95501,128.27566"><g transform="translate(-189.02249,-115.86217)"><g data-paper-data="{&quot;isPaintingLayer&quot;:true}" fill-rule="nonzero" stroke-linejoin="miter" stroke-miterlimit="10" stroke-dasharray="" stroke-dashoffset="0" style="mix-blend-mode: normal"><path d="M208.84558,165.90948l-16.25,-11.25l26.25,-11.5l31.66474,15.11174l-34.32948,1.74128" fill="none" stroke="#000000" stroke-width="3.5" stroke-linecap="round"/><path d="M197.84558,240.34697l12.87501,-18.75l4,-24l13,21l4.12499,22.75" fill="none" stroke="#000000" stroke-width="3.5" stroke-linecap="round"/><path d="M215.09558,197.09697l4,-53" fill="none" stroke="#000000" stroke-width="3.5" stroke-linecap="round"/><path d="M237.3487,242.90276l-13.94032,1.23507l-0.0082,-4.18954l13.94032,-1.23507z" fill="#6f6f6f" stroke="none" stroke-width="0" stroke-linecap="butt"/><g><path d="M210.94472,126.31681c3.07638,-6.22425 10.61603,-8.7761 16.84028,-5.69972c6.22425,3.07638 8.7761,10.61603 5.69972,16.84028c-3.07638,6.22425 -10.61603,8.7761 -16.84028,5.69972c-6.22425,-3.07638 -8.7761,-10.61603 -5.69972,-16.84028z" fill="#000000" stroke="none" stroke-width="0" stroke-linecap="butt"/><path d="M217.37491,124.16077l-7.16624,13.32821" fill="none" stroke="#9e7d7d" stroke-width="1.5" stroke-linecap="round"/><path d="M236.36971,132.06892c-1.11793,3.01178 -6.49211,-3.4 -13.44663,-6.22405c-6.03484,-2.45059 -13.93024,-0.9643 -12.96015,-3.5778c2.08804,-5.62528 9.69208,-7.99125 16.9841,-5.28454c7.29203,2.7067 11.51071,9.46111 9.42267,15.0864z" fill="#ff0000" stroke="none" stroke-width="0" stroke-linecap="butt"/></g><g><path d="M214.19561,159.74236l-21.97496,3.79654l1.10868,-8.53058z" fill="#ad5555" stroke="#000000" stroke-width="0" stroke-linecap="round"/><g><path d="M217.7683,175.2309l-0.94516,-13.96297l4.1888,0.07885l0.94516,13.96297z" fill="#6f6f6f" stroke="none" stroke-width="0" stroke-linecap="butt"/><path d="M262.62267,170.09024l27.60483,5.19954" fill="none" stroke="#a1a1a1" stroke-width="1.5" stroke-linecap="round"/><path d="M194.4274,156.03023l83.58464,17.33984" fill="none" stroke="#ad5555" stroke-width="3.5" stroke-linecap="round"/><path d="M230.94753,161.55809l27.60483,5.19954" fill="none" stroke="#a1a1a1" stroke-width="1.5" stroke-linecap="round"/><path d="M208.1018,168.23109l3.04021,-7.08995l1.18166,0.5067l-3.04022,7.08994z" fill="none" stroke="#a1a1a1" stroke-width="1.5" stroke-linecap="butt"/></g></g></g></g></svg>