<svg version="1.1" xmlns="http://www.w3.org/2000/svg" xmlns:xlink="http://www.w3.org/1999/xlink" width="101.62809" height="129.15569" viewBox="0,0,101.62809,129.15569"><g transform="translate(-189.18595,-115.42216)"><g data-paper-data="{&quot;isPaintingLayer&quot;:true}" fill-rule="nonzero" stroke-linejoin="miter" stroke-miterlimit="10" stroke-dasharray="" stroke-dashoffset="0" style="mix-blend-mode: normal"><path d="M198.00904,241.82785l12.87501,-18.75l4,-24l13,21l4.12499,22.75" fill="none" stroke="#000000" stroke-width="3.5" stroke-linecap="round"/><path d="M215.25904,198.57785l4,-53" fill="none" stroke="#000000" stroke-width="3.5" stroke-linecap="round"/><path d="M209.00904,167.39035l-16.25,-11.25l26.25,-11.5l10.75,18.75l18,9.25" fill="none" stroke="#000000" stroke-width="3.5" stroke-linecap="round"/><path d="M207.41975,130.97963c0,-6.94301 5.62842,-12.57143 12.57143,-12.57143c6.94301,0 12.57143,5.62842 12.57143,12.57143c0,6.94301 -5.62842,12.57143 -12.57143,12.57143c-6.94301,0 -12.57143,-5.62842 -12.57143,-12.57143z" fill="#000000" stroke="none" stroke-width="0" stroke-linecap="butt"/><path d="M212.22895,126.19763l-0.51877,15.12372" fill="none" stroke="#9e7d7d" stroke-width="1.5" stroke-linecap="round"/><path d="M232.76137,124.8707c0.33229,3.19534 -7.32653,-0.17143 -14.81241,0.37835c-6.49593,0.47708 -12.91541,5.30788 -13.20376,2.5351c-0.62063,-5.96812 5.14788,-11.45844 12.88433,-12.26296c7.73645,-0.80453 14.51121,3.38139 15.13184,9.34952z" fill="#ff0000" stroke="none" stroke-width="0" stroke-linecap="butt"/><g><path d="M215.30382,160.5976l-22.18647,2.25236l1.70182,-8.43231z" fill="#ad5555" stroke="#000000" stroke-width="0" stroke-linecap="round"/><g><path d="M217.78594,176.29786l0.03243,-13.99488l4.17306,0.37123l-0.03243,13.99488z" fill="#6f6f6f" stroke="none" stroke-width="0" stroke-linecap="butt"/><path d="M290.06404,181.41773l-27.17424,-7.11498" fill="none" stroke="#a1a1a1" stroke-width="1.5" stroke-linecap="round"/><path d="M278.01251,178.64948l-82.16934,-23.13572" fill="none" stroke="#ad5555" stroke-width="3.5" stroke-linecap="round"/><path d="M231.88799,163.57898l27.17424,7.11498" fill="none" stroke="#a1a1a1" stroke-width="1.5" stroke-linecap="round"/><path d="M208.63197,168.63995l3.528,-6.86028l1.14338,0.588l-3.52801,6.86027z" fill="none" stroke="#a1a1a1" stroke-width="1.5" stroke-linecap="butt"/></g></g></g></g></svg>