<svg version="1.1" xmlns="http://www.w3.org/2000/svg" xmlns:xlink="http://www.w3.org/1999/xlink" width="116.58849" height="128.90569" viewBox="0,0,116.58849,128.90569"><g transform="translate(-209.35832,-96.76098)"><g data-paper-data="{&quot;isPaintingLayer&quot;:true}" fill-rule="nonzero" stroke-linejoin="miter" stroke-miterlimit="10" stroke-dasharray="" stroke-dashoffset="0" style="mix-blend-mode: normal"><path d="M222.95834,222.91667l12.87501,-18.75l4,-24l13,21l4.12499,22.75" fill="none" stroke="#000000" stroke-width="3.5" stroke-linecap="round"/><path d="M244.20834,126.66667l-4,53" fill="none" stroke="#000000" stroke-width="3.5" stroke-linecap="round"/><path d="M245.70834,131.22917l-22.5,-2.75l20.75,-2.75l22.5,5.75l21.75,-4.75" fill="none" stroke="#000000" stroke-width="3.5" stroke-linecap="round"/><g><path d="M232.86905,112.31845c0,-6.94301 5.62842,-12.57143 12.57143,-12.57143c6.94301,0 12.57143,5.62842 12.57143,12.57143c0,6.94301 -5.62842,12.57143 -12.57143,12.57143c-6.94301,0 -12.57143,-5.62842 -12.57143,-12.57143z" fill="#000000" stroke="none" stroke-width="0" stroke-linecap="butt"/><path d="M237.67825,107.53645l-0.51877,15.12372" fill="none" stroke="#9e7d7d" stroke-width="1.5" stroke-linecap="round"/><path d="M258.21067,106.20952c0.33229,3.19534 -7.32653,-0.17143 -14.81241,0.37835c-6.49593,0.47708 -12.91541,5.30788 -13.20376,2.5351c-0.62063,-5.96812 5.14788,-11.45844 12.88433,-12.26296c7.73645,-0.80453 14.51121,3.38139 15.13184,9.34952z" fill="#FF0000" stroke="none" stroke-width="0" stroke-linecap="butt"/></g><g><path d="M253.93958,138.22962l-3.47321,-13.55708l4.13306,-0.68562l3.47321,13.55708z" fill="#6f6f6f" stroke="none" stroke-width="0" stroke-linecap="butt"/><path d="M297.10668,125.00314l28.09013,0.08328" fill="none" stroke="#a1a1a1" stroke-width="1.5" stroke-linecap="round"/><path d="M312.83605,125.42432l-85.34485,-1.82164" fill="none" stroke="#ad5555" stroke-width="3.5" stroke-linecap="round"/><path d="M247.60488,123.65119l-20.9155,7.73655l-0.46403,-8.5898z" fill="#ad5555" stroke="#000000" stroke-width="0" stroke-linecap="round"/><path d="M264.40723,122.38455l28.09013,0.08328" fill="none" stroke="#a1a1a1" stroke-width="1.5" stroke-linecap="round"/><path d="M243.15958,133.10805l1.69764,-7.52518l1.2542,0.28294l-1.69764,7.52517z" fill="none" stroke="#a1a1a1" stroke-width="1.5" stroke-linecap="butt"/></g></g></g></svg>