<svg version="1.1" xmlns="http://www.w3.org/2000/svg" xmlns:xlink="http://www.w3.org/1999/xlink" width="97.31292" height="127.2348" viewBox="0,0,97.31292,127.2348"><g transform="translate(-191.34353,-116.3826)"><g data-paper-data="{&quot;isPaintingLayer&quot;:true}" fill-rule="nonzero" stroke-linejoin="miter" stroke-miterlimit="10" stroke-dasharray="" stroke-dashoffset="0" style="mix-blend-mode: normal"><path d="M200.16662,240.86741l12.87501,-18.75l4,-24l13,21l4.12499,22.75" fill="none" stroke="#000000" stroke-width="3.5" stroke-linecap="round"/><path d="M217.41662,197.61741l4,-53" fill="none" stroke="#000000" stroke-width="3.5" stroke-linecap="round"/><path d="M211.16662,166.42991l-16.25,-11.25l26.25,-11.5l9.81242,19.87953l-4.92816,19.62046" fill="none" stroke="#000000" stroke-width="3.5" stroke-linecap="round"/><path d="M216.63719,164.9768l-22.28754,-0.76044l2.82351,-8.12575z" fill="#ad5555" stroke="#000000" stroke-width="0" stroke-linecap="round"/><path d="M230.08143,189.34412l-11.10691,-8.51436l2.82632,-3.09261l11.10691,8.51436z" fill="#6f6f6f" stroke="none" stroke-width="0" stroke-linecap="butt"/><path d="M261.94006,184.97451l25.96639,10.71488" fill="none" stroke="#a1a1a1" stroke-width="1.5" stroke-linecap="round"/><path d="M276.33836,191.32108l-78.29838,-34.00626" fill="none" stroke="#ad5555" stroke-width="3.5" stroke-linecap="round"/><path d="M232.66776,170.1676l25.96639,10.71488" fill="none" stroke="#a1a1a1" stroke-width="1.5" stroke-linecap="round"/><path d="M208.94165,172.04587l4.42099,-6.32179l1.05363,0.73683l-4.421,6.32178z" fill="none" stroke="#a1a1a1" stroke-width="1.5" stroke-linecap="butt"/><g><path d="M213.26576,126.83725c3.07638,-6.22425 10.61603,-8.7761 16.84028,-5.69972c6.22425,3.07638 8.7761,10.61603 5.69972,16.84028c-3.07638,6.22425 -10.61603,8.7761 -16.84028,5.69972c-6.22425,-3.07638 -8.7761,-10.61603 -5.69972,-16.84028z" fill="#000000" stroke="none" stroke-width="0" stroke-linecap="butt"/><path d="M219.69595,124.68121l-7.16624,13.32821" fill="none" stroke="#9e7d7d" stroke-width="1.5" stroke-linecap="round"/><path d="M238.69075,132.58936c-1.11793,3.01178 -6.49211,-3.4 -13.44663,-6.22405c-6.03484,-2.45059 -13.93024,-0.9643 -12.96015,-3.5778c2.08804,-5.62528 9.69208,-7.99125 16.9841,-5.28454c7.29203,2.7067 11.51071,9.46111 9.42267,15.0864z" fill="#ff0000" stroke="none" stroke-width="0" stroke-linecap="butt"/></g></g></g></svg>