<svg version="1.1" xmlns="http://www.w3.org/2000/svg" xmlns:xlink="http://www.w3.org/1999/xlink" width="97.31292" height="127.2348" viewBox="0,0,97.31292,127.2348"><g transform="translate(-191.34354,-116.3826)"><g data-paper-data="{&quot;isPaintingLayer&quot;:true}" fill-rule="nonzero" stroke-linejoin="miter" stroke-miterlimit="10" stroke-dasharray="" stroke-dashoffset="0" style="mix-blend-mode: normal"><path d="M211.16663,166.42991l-16.25,-11.25l26.25,-11.5l9.4151,23.05805l-11.68252,22.40167" fill="none" stroke="#000000" stroke-width="3.5" stroke-linecap="round"/><path d="M200.16663,240.8674l12.87501,-18.75l4,-24l13,21l4.12499,22.75" fill="none" stroke="#000000" stroke-width="3.5" stroke-linecap="round"/><path d="M217.41663,197.6174l4,-53" fill="none" stroke="#000000" stroke-width="3.5" stroke-linecap="round"/><path d="M216.6372,164.97679l-22.28754,-0.76044l2.82351,-8.12575z" fill="#ad5555" stroke="#000000" stroke-width="0" stroke-linecap="round"/><path d="M236.88855,206.47289l-13.94032,1.23507l-0.0082,-4.18954l13.94032,-1.23507z" fill="#6f6f6f" stroke="none" stroke-width="0" stroke-linecap="butt"/><path d="M261.94007,184.9745l25.96639,10.71488" fill="none" stroke="#a1a1a1" stroke-width="1.5" stroke-linecap="round"/><path d="M276.33837,191.32107l-78.29838,-34.00626" fill="none" stroke="#ad5555" stroke-width="3.5" stroke-linecap="round"/><path d="M258.63416,180.88247l-25.96639,-10.71488" fill="none" stroke="#a1a1a1" stroke-width="1.5" stroke-linecap="round"/><path d="M208.94166,172.04586l4.42099,-6.32179l1.05363,0.73683l-4.421,6.32178z" fill="none" stroke="#a1a1a1" stroke-width="1.5" stroke-linecap="butt"/><g><path d="M213.26577,126.83724c3.07638,-6.22425 10.61603,-8.7761 16.84028,-5.69972c6.22425,3.07638 8.7761,10.61603 5.69972,16.84028c-3.07638,6.22425 -10.61603,8.7761 -16.84028,5.69972c-6.22425,-3.07638 -8.7761,-10.61603 -5.69972,-16.84028z" fill="#000000" stroke="none" stroke-width="0" stroke-linecap="butt"/><path d="M219.69596,124.6812l-7.16624,13.32821" fill="none" stroke="#9e7d7d" stroke-width="1.5" stroke-linecap="round"/><path d="M238.69076,132.58935c-1.11793,3.01178 -6.49211,-3.4 -13.44663,-6.22405c-6.03484,-2.45059 -13.93024,-0.9643 -12.96015,-3.5778c2.08804,-5.62528 9.69208,-7.99125 16.9841,-5.28454c7.29203,2.7067 11.51071,9.46111 9.42267,15.0864z" fill="#ff0000" stroke="none" stroke-width="0" stroke-linecap="butt"/></g></g></g></svg>