<svg version="1.1" xmlns="http://www.w3.org/2000/svg" xmlns:xlink="http://www.w3.org/1999/xlink" width="97.31292" height="128.27566" viewBox="0,0,97.31292,128.27566"><g transform="translate(-191.34354,-115.86217)"><g data-paper-data="{&quot;isPaintingLayer&quot;:true}" fill-rule="nonzero" stroke-linejoin="miter" stroke-miterlimit="10" stroke-dasharray="" stroke-dashoffset="0" style="mix-blend-mode: normal"><path d="M211.16663,165.90948l-16.25,-11.25l26.25,-11.5l17.3614,17.49563l-16.4503,16.04463" fill="none" stroke="#000000" stroke-width="3.5" stroke-linecap="round"/><path d="M200.16663,240.34697l12.87501,-18.75l4,-24l13,21l4.12499,22.75" fill="none" stroke="#000000" stroke-width="3.5" stroke-linecap="round"/><path d="M217.41663,197.09697l4,-53" fill="none" stroke="#000000" stroke-width="3.5" stroke-linecap="round"/><path d="M239.66975,242.90276l-13.94032,1.23507l-0.0082,-4.18954l13.94032,-1.23507z" fill="#6f6f6f" stroke="none" stroke-width="0" stroke-linecap="butt"/><g><path d="M213.26577,126.31681c3.07638,-6.22425 10.61603,-8.7761 16.84028,-5.69972c6.22425,3.07638 8.7761,10.61603 5.69972,16.84028c-3.07638,6.22425 -10.61603,8.7761 -16.84028,5.69972c-6.22425,-3.07638 -8.7761,-10.61603 -5.69972,-16.84028z" fill="#000000" stroke="none" stroke-width="0" stroke-linecap="butt"/><path d="M219.69596,124.16077l-7.16624,13.32821" fill="none" stroke="#9e7d7d" stroke-width="1.5" stroke-linecap="round"/><path d="M238.69076,132.06892c-1.11793,3.01178 -6.49211,-3.4 -13.44663,-6.22405c-6.03484,-2.45059 -13.93024,-0.9643 -12.96015,-3.5778c2.08804,-5.62528 9.69208,-7.99125 16.9841,-5.28454c7.29203,2.7067 11.51071,9.46111 9.42267,15.0864z" fill="#ff0000" stroke="none" stroke-width="0" stroke-linecap="butt"/></g><g><path d="M216.6372,164.45636l-22.28754,-0.76044l2.82351,-8.12575z" fill="#ad5555" stroke="#000000" stroke-width="0" stroke-linecap="round"/><g><path d="M216.9792,180.34793l1.91958,-13.86265l4.08487,0.93065l-1.91958,13.86265z" fill="#6f6f6f" stroke="none" stroke-width="0" stroke-linecap="butt"/><path d="M261.94007,184.45407l25.96639,10.71488" fill="none" stroke="#a1a1a1" stroke-width="1.5" stroke-linecap="round"/><path d="M276.33837,190.80064l-78.29838,-34.00626" fill="none" stroke="#ad5555" stroke-width="3.5" stroke-linecap="round"/><path d="M232.66777,169.64716l25.96639,10.71488" fill="none" stroke="#a1a1a1" stroke-width="1.5" stroke-linecap="round"/><path d="M208.94166,171.52543l4.42099,-6.32179l1.05363,0.73683l-4.421,6.32178z" fill="none" stroke="#a1a1a1" stroke-width="1.5" stroke-linecap="butt"/></g></g></g></g></svg>