<svg version="1.1" xmlns="http://www.w3.org/2000/svg" xmlns:xlink="http://www.w3.org/1999/xlink" width="141.60002" height="128.90569" viewBox="0,0,141.60002,128.90569"><g transform="translate(-169.19999,-115.54716)"><g data-paper-data="{&quot;isPaintingLayer&quot;:true}" fill-rule="nonzero" stroke-linejoin="miter" stroke-miterlimit="10" stroke-dasharray="" stroke-dashoffset="0" style="mix-blend-mode: normal"><path d="M205.55001,150.01535l-22.5,-2.75l20.75,-2.75l22.5,5.75l21.75,-4.75" fill="none" stroke="#000000" stroke-width="3.5" stroke-linecap="round"/><path d="M182.80001,241.70285l12.87501,-18.75l4,-24l13,21l4.12499,22.75" fill="none" stroke="#000000" stroke-width="3.5" stroke-linecap="round"/><path d="M204.05001,145.45285l-4,53" fill="none" stroke="#000000" stroke-width="3.5" stroke-linecap="round"/><g><path d="M192.71072,131.10463c0,-6.94301 5.62842,-12.57143 12.57143,-12.57143c6.94301,0 12.57143,5.62842 12.57143,12.57143c0,6.94301 -5.62842,12.57143 -12.57143,12.57143c-6.94301,0 -12.57143,-5.62842 -12.57143,-12.57143z" fill="#000000" stroke="none" stroke-width="0" stroke-linecap="butt"/><path d="M197.51992,126.32263l-0.51877,15.12372" fill="none" stroke="#9e7d7d" stroke-width="1.5" stroke-linecap="round"/><path d="M218.05234,124.9957c0.33229,3.19534 -7.32653,-0.17143 -14.81241,0.37835c-6.49593,0.47708 -12.91541,5.30788 -13.20376,2.5351c-0.62063,-5.96812 5.14788,-11.45844 12.88433,-12.26296c7.73645,-0.80453 14.51121,3.38139 15.13184,9.34952z" fill="#ff0000" stroke="none" stroke-width="0" stroke-linecap="butt"/></g><g><path d="M213.78125,157.0158l-3.47321,-13.55708l4.13306,-0.68562l3.47321,13.55708z" fill="#6f6f6f" stroke="none" stroke-width="0" stroke-linecap="butt"/><path d="M285.03848,143.8726l-28.09013,-0.08328" fill="none" stroke="#a1a1a1" stroke-width="1.5" stroke-linecap="round"/><path d="M272.67772,144.2105l-85.34485,-1.82164" fill="none" stroke="#ad5555" stroke-width="3.5" stroke-linecap="round"/><path d="M207.44655,142.43737l-20.9155,7.73655l-0.46403,-8.5898z" fill="#ad5555" stroke="#000000" stroke-width="0" stroke-linecap="round"/><path d="M224.2489,141.17073l28.09013,0.08328" fill="none" stroke="#a1a1a1" stroke-width="1.5" stroke-linecap="round"/><path d="M203.00125,151.89423l1.69764,-7.52518l1.2542,0.28294l-1.69764,7.52517z" fill="none" stroke="#a1a1a1" stroke-width="1.5" stroke-linecap="butt"/></g><path d="M284.42501,143.69967l13.85805,-9.61123l-0.10046,6.53096l12.61741,1.29213l-13.26343,4.44605l5.66385,6.28276z" fill="#fff6b9" stroke="none" stroke-width="0" stroke-linecap="butt"/></g></g></svg>