<svg version="1.1" xmlns="http://www.w3.org/2000/svg" xmlns:xlink="http://www.w3.org/1999/xlink" width="93.75692" height="129.15569" viewBox="0,0,93.75692,129.15569"><g transform="translate(-193.12154,-115.42215)"><g data-paper-data="{&quot;isPaintingLayer&quot;:true}" fill-rule="nonzero" stroke-linejoin="miter" stroke-miterlimit="10" stroke-dasharray="" stroke-dashoffset="0" style="mix-blend-mode: normal"><path d="M201.94463,241.82784l12.87501,-18.75l4,-24l13,21l4.12499,22.75" fill="none" stroke="#000000" stroke-width="3.5" stroke-linecap="round"/><path d="M219.19463,198.57784l4,-53" fill="none" stroke="#000000" stroke-width="3.5" stroke-linecap="round"/><path d="M212.94463,167.39034l-16.25,-11.25l26.25,-11.5l4.25,24.25l20.5,15.25" fill="none" stroke="#000000" stroke-width="3.5" stroke-linecap="round"/><path d="M211.35534,130.97962c0,-6.94301 5.62842,-12.57143 12.57143,-12.57143c6.94301,0 12.57143,5.62842 12.57143,12.57143c0,6.94301 -5.62842,12.57143 -12.57143,12.57143c-6.94301,0 -12.57143,-5.62842 -12.57143,-12.57143z" fill="#000000" stroke="none" stroke-width="0" stroke-linecap="butt"/><path d="M216.16454,126.19762l-0.51877,15.12372" fill="none" stroke="#9e7d7d" stroke-width="1.5" stroke-linecap="round"/><path d="M236.69696,124.87069c0.33229,3.19534 -7.32653,-0.17143 -14.81241,0.37835c-6.49593,0.47708 -12.91541,5.30788 -13.20376,2.5351c-0.62063,-5.96812 5.14788,-11.45844 12.88433,-12.26296c7.73645,-0.80453 14.51121,3.38139 15.13184,9.34952z" fill="#ff0000" stroke="none" stroke-width="0" stroke-linecap="butt"/><g><path d="M220.42305,162.39789l-21.90619,-4.17512l4.03824,-7.59557z" fill="#ad5555" stroke="#000000" stroke-width="0" stroke-linecap="round"/><g><path d="M218.3198,178.15338l4.02631,-13.40323l3.89342,1.5471l-4.02631,13.40323z" fill="#6f6f6f" stroke="none" stroke-width="0" stroke-linecap="butt"/><path d="M286.12846,203.694l-24.01222,-14.57654" fill="none" stroke="#a1a1a1" stroke-width="1.5" stroke-linecap="round"/><path d="M275.36872,197.6005l-72.14515,-45.63047" fill="none" stroke="#ad5555" stroke-width="3.5" stroke-linecap="round"/><path d="M235.46596,169.98962l24.01222,14.57654" fill="none" stroke="#a1a1a1" stroke-width="1.5" stroke-linecap="round"/><path d="M211.73293,168.2009l5.33964,-5.56762l0.92794,0.88994l-5.33965,5.56761z" fill="none" stroke="#a1a1a1" stroke-width="1.5" stroke-linecap="butt"/></g></g></g></g></svg>