<svg version="1.1" xmlns="http://www.w3.org/2000/svg" xmlns:xlink="http://www.w3.org/1999/xlink" width="93.75692" height="129.15569" viewBox="0,0,93.75692,129.15569"><g transform="translate(-214.13525,-96.51099)"><g data-paper-data="{&quot;isPaintingLayer&quot;:true}" fill-rule="nonzero" stroke-linejoin="miter" stroke-miterlimit="10" stroke-dasharray="" stroke-dashoffset="0" style="mix-blend-mode: normal"><path d="M222.95834,222.91667l12.87501,-18.75l4,-24l13,21l4.12499,22.75" fill="none" stroke="#000000" stroke-width="3.5" stroke-linecap="round"/><path d="M240.20834,179.66667l4,-53" fill="none" stroke="#000000" stroke-width="3.5" stroke-linecap="round"/><path d="M233.95834,148.47917l-16.25,-11.25l26.25,-11.5l4.25,24.25l20.5,15.25" fill="none" stroke="#000000" stroke-width="3.5" stroke-linecap="round"/><path d="M232.36905,112.06845c0,-6.94301 5.62842,-12.57143 12.57143,-12.57143c6.94301,0 12.57143,5.62842 12.57143,12.57143c0,6.94301 -5.62842,12.57143 -12.57143,12.57143c-6.94301,0 -12.57143,-5.62842 -12.57143,-12.57143z" fill="#000000" stroke="none" stroke-width="0" stroke-linecap="butt"/><path d="M237.17825,107.28645l-0.51877,15.12372" fill="none" stroke="#9e7d7d" stroke-width="1.5" stroke-linecap="round"/><path d="M257.71067,105.95952c0.33229,3.19534 -7.32653,-0.17143 -14.81241,0.37835c-6.49593,0.47708 -12.91541,5.30788 -13.20376,2.5351c-0.62063,-5.96812 5.14788,-11.45844 12.88433,-12.26296c7.73645,-0.80453 14.51121,3.38139 15.13184,9.34952z" fill="#bafb00" stroke="none" stroke-width="0" stroke-linecap="butt"/><g><path d="M241.43676,143.48672l-21.90619,-4.17512l4.03824,-7.59557z" fill="#ad5555" stroke="#000000" stroke-width="0" stroke-linecap="round"/><g><path d="M239.33351,159.24221l4.02631,-13.40323l3.89342,1.5471l-4.02631,13.40323z" fill="#6f6f6f" stroke="none" stroke-width="0" stroke-linecap="butt"/><path d="M307.14217,184.78283l-24.01222,-14.57654" fill="none" stroke="#a1a1a1" stroke-width="1.5" stroke-linecap="round"/><path d="M296.38243,178.68933l-72.14515,-45.63047" fill="none" stroke="#ad5555" stroke-width="3.5" stroke-linecap="round"/><path d="M256.47967,151.07845l24.01222,14.57654" fill="none" stroke="#a1a1a1" stroke-width="1.5" stroke-linecap="round"/><path d="M232.74664,149.28973l5.33964,-5.56762l0.92794,0.88994l-5.33965,5.56761z" fill="none" stroke="#a1a1a1" stroke-width="1.5" stroke-linecap="butt"/></g></g></g></g></svg>