<svg version="1.1" xmlns="http://www.w3.org/2000/svg" xmlns:xlink="http://www.w3.org/1999/xlink" width="101.95501" height="128.27566" viewBox="0,0,101.95501,128.27566"><g transform="translate(-214.13525,-98.43187)"><g data-paper-data="{&quot;isPaintingLayer&quot;:true}" fill-rule="nonzero" stroke-linejoin="miter" stroke-miterlimit="10" stroke-dasharray="" stroke-dashoffset="0" style="mix-blend-mode: normal"><path d="M233.95834,148.47918l-16.25,-11.25l26.25,-11.5l23.32112,15.50906l-10.88789,10.48221" fill="none" stroke="#000000" stroke-width="3.5" stroke-linecap="round"/><path d="M222.95834,222.91667l12.87501,-18.75l4,-24l13,21l4.12499,22.75" fill="none" stroke="#000000" stroke-width="3.5" stroke-linecap="round"/><path d="M240.20834,179.66667l4,-53" fill="none" stroke="#000000" stroke-width="3.5" stroke-linecap="round"/><path d="M262.46146,225.47246l-13.94032,1.23507l-0.0082,-4.18954l13.94032,-1.23507z" fill="#6f6f6f" stroke="none" stroke-width="0" stroke-linecap="butt"/><g><path d="M236.05748,108.88651c3.07638,-6.22425 10.61603,-8.7761 16.84028,-5.69972c6.22425,3.07638 8.7761,10.61603 5.69972,16.84028c-3.07638,6.22425 -10.61603,8.7761 -16.84028,5.69972c-6.22425,-3.07638 -8.7761,-10.61603 -5.69972,-16.84028z" fill="#000000" stroke="none" stroke-width="0" stroke-linecap="butt"/><path d="M242.48767,106.73047l-7.16624,13.32821" fill="none" stroke="#9e7d7d" stroke-width="1.5" stroke-linecap="round"/><path d="M261.48247,114.63862c-1.11793,3.01178 -6.49211,-3.4 -13.44663,-6.22405c-6.03484,-2.45059 -13.93024,-0.9643 -12.96015,-3.5778c2.08804,-5.62528 9.69208,-7.99125 16.9841,-5.28454c7.29203,2.7067 11.51071,9.46111 9.42267,15.0864z" fill="#bafb00" stroke="none" stroke-width="0" stroke-linecap="butt"/></g><g><path d="M239.30837,142.31206l-21.97496,3.79654l1.10868,-8.53058z" fill="#ad5555" stroke="#000000" stroke-width="0" stroke-linecap="round"/><g><path d="M242.88106,157.8006l-0.94516,-13.96297l4.1888,0.07885l0.94516,13.96297z" fill="#6f6f6f" stroke="none" stroke-width="0" stroke-linecap="butt"/><path d="M287.73543,152.65994l27.60483,5.19954" fill="none" stroke="#a1a1a1" stroke-width="1.5" stroke-linecap="round"/><path d="M219.54016,138.59993l83.58464,17.33984" fill="none" stroke="#ad5555" stroke-width="3.5" stroke-linecap="round"/><path d="M256.06029,144.12779l27.60483,5.19954" fill="none" stroke="#a1a1a1" stroke-width="1.5" stroke-linecap="round"/><path d="M233.21456,150.80079l3.04021,-7.08995l1.18166,0.5067l-3.04022,7.08994z" fill="none" stroke="#a1a1a1" stroke-width="1.5" stroke-linecap="butt"/></g></g></g></g></svg>