<svg version="1.1" xmlns="http://www.w3.org/2000/svg" xmlns:xlink="http://www.w3.org/1999/xlink" width="97.31292" height="127.2348" viewBox="0,0,97.31292,127.2348"><g transform="translate(-214.13525,-98.43187)"><g data-paper-data="{&quot;isPaintingLayer&quot;:true}" fill-rule="nonzero" stroke-linejoin="miter" stroke-miterlimit="10" stroke-dasharray="" stroke-dashoffset="0" style="mix-blend-mode: normal"><path d="M233.95834,148.47918l-16.25,-11.25l26.25,-11.5l16.56677,20.27684l-11.2852,22.79899" fill="none" stroke="#000000" stroke-width="3.5" stroke-linecap="round"/><path d="M222.95834,222.91667l12.87501,-18.75l4,-24l13,21l4.12499,22.75" fill="none" stroke="#000000" stroke-width="3.5" stroke-linecap="round"/><path d="M240.20834,179.66667l4,-53" fill="none" stroke="#000000" stroke-width="3.5" stroke-linecap="round"/><path d="M239.42891,147.02606l-22.28754,-0.76044l2.82351,-8.12575z" fill="#ad5555" stroke="#000000" stroke-width="0" stroke-linecap="round"/><path d="M260.47489,203.59328l-13.94032,1.23507l-0.0082,-4.18954l13.94032,-1.23507z" fill="#6f6f6f" stroke="none" stroke-width="0" stroke-linecap="butt"/><path d="M284.73178,167.02377l25.96639,10.71488" fill="none" stroke="#a1a1a1" stroke-width="1.5" stroke-linecap="round"/><path d="M299.13008,173.37034l-78.29838,-34.00626" fill="none" stroke="#ad5555" stroke-width="3.5" stroke-linecap="round"/><path d="M281.42587,162.93174l-25.96639,-10.71488" fill="none" stroke="#a1a1a1" stroke-width="1.5" stroke-linecap="round"/><path d="M231.73337,154.09513l4.42099,-6.32179l1.05363,0.73683l-4.421,6.32178z" fill="none" stroke="#a1a1a1" stroke-width="1.5" stroke-linecap="butt"/><g><path d="M236.05748,108.88651c3.07638,-6.22425 10.61603,-8.7761 16.84028,-5.69972c6.22425,3.07638 8.7761,10.61603 5.69972,16.84028c-3.07638,6.22425 -10.61603,8.7761 -16.84028,5.69972c-6.22425,-3.07638 -8.7761,-10.61603 -5.69972,-16.84028z" fill="#000000" stroke="none" stroke-width="0" stroke-linecap="butt"/><path d="M242.48767,106.73047l-7.16624,13.32821" fill="none" stroke="#9e7d7d" stroke-width="1.5" stroke-linecap="round"/><path d="M261.48247,114.63862c-1.11793,3.01178 -6.49211,-3.4 -13.44663,-6.22405c-6.03484,-2.45059 -13.93024,-0.9643 -12.96015,-3.5778c2.08804,-5.62528 9.69208,-7.99125 16.9841,-5.28454c7.29203,2.7067 11.51071,9.46111 9.42267,15.0864z" fill="#bafb00" stroke="none" stroke-width="0" stroke-linecap="butt"/></g><path d="M251.82787,176.13516l-9.76298,-10.02707l3.24275,-2.65271l9.76298,10.02707z" fill="#6f6f6f" stroke="none" stroke-width="0" stroke-linecap="butt"/></g></g></svg>