<svg version="1.1" xmlns="http://www.w3.org/2000/svg" xmlns:xlink="http://www.w3.org/1999/xlink" width="101.62809" height="130.15569" viewBox="0,0,101.62809,130.15569"><g transform="translate(-212.63526,-94.01099)"><g data-paper-data="{&quot;isPaintingLayer&quot;:true}" fill-rule="nonzero" stroke-linejoin="miter" stroke-miterlimit="10" stroke-dasharray="" stroke-dashoffset="0" style="mix-blend-mode: normal"><path d="M226.95835,222.41668l11.87501,-22.75l1.5,-21l18,10l-8.87501,17.75" fill="none" stroke="#000000" stroke-width="3.5" stroke-linecap="round"/><g><path d="M239.70835,179.66668l3,-55.5" fill="none" stroke="#000000" stroke-width="3.5" stroke-linecap="round"/><path d="M232.45835,145.97918l-16.25,-11.25l26.25,-11.5l10.75,18.75l18,9.25" fill="none" stroke="#000000" stroke-width="3.5" stroke-linecap="round"/><path d="M230.86906,109.56846c0,-6.94301 5.62842,-12.57143 12.57143,-12.57143c6.94301,0 12.57143,5.62842 12.57143,12.57143c0,6.94301 -5.62842,12.57143 -12.57143,12.57143c-6.94301,0 -12.57143,-5.62842 -12.57143,-12.57143z" fill="#000000" stroke="none" stroke-width="0" stroke-linecap="butt"/><path d="M235.67826,104.78646l-0.51877,15.12372" fill="none" stroke="#9e7d7d" stroke-width="1.5" stroke-linecap="round"/><path d="M256.21067,103.45953c0.33229,3.19534 -7.32653,-0.17143 -14.81241,0.37835c-6.49593,0.47708 -12.91541,5.30788 -13.20376,2.5351c-0.62063,-5.96812 5.14788,-11.45844 12.88433,-12.26296c7.73645,-0.80453 14.51121,3.38139 15.13184,9.34952z" fill="#bafb00" stroke="none" stroke-width="0" stroke-linecap="butt"/><g><path d="M238.75313,139.18643l-22.18647,2.25236l1.70182,-8.43231z" fill="#ad5555" stroke="#000000" stroke-width="0" stroke-linecap="round"/><g><path d="M241.23525,154.88669l0.03243,-13.99488l4.17306,0.37123l-0.03243,13.99488z" fill="#6f6f6f" stroke="none" stroke-width="0" stroke-linecap="butt"/><path d="M313.51335,160.00656l-27.17424,-7.11498" fill="none" stroke="#a1a1a1" stroke-width="1.5" stroke-linecap="round"/><path d="M301.46182,157.23831l-82.16934,-23.13572" fill="none" stroke="#ad5555" stroke-width="3.5" stroke-linecap="round"/><path d="M255.3373,142.1678l27.17424,7.11498" fill="none" stroke="#a1a1a1" stroke-width="1.5" stroke-linecap="round"/><path d="M232.08128,147.22878l3.528,-6.86028l1.14338,0.588l-3.52801,6.86027z" fill="none" stroke="#a1a1a1" stroke-width="1.5" stroke-linecap="butt"/></g></g></g></g></g></svg>