<svg version="1.1" xmlns="http://www.w3.org/2000/svg" xmlns:xlink="http://www.w3.org/1999/xlink" width="127.6333" height="129.15569" viewBox="0,0,127.6333,129.15569"><g transform="translate(-215.32504,-96.51099)"><g data-paper-data="{&quot;isPaintingLayer&quot;:true}" fill-rule="nonzero" stroke-linejoin="miter" stroke-miterlimit="10" stroke-dasharray="" stroke-dashoffset="0" style="mix-blend-mode: normal"><path d="M222.95834,222.91667l12.87501,-18.75l4,-24l13,21l4.12499,22.75" fill="none" stroke="#000000" stroke-width="3.5" stroke-linecap="round"/><path d="M240.20834,179.66667l4,-53" fill="none" stroke="#000000" stroke-width="3.5" stroke-linecap="round"/><path d="M234.95834,159.47917l-16.75,-10.75l25.75,-23l7.25,23.25l18,10.25" fill="none" stroke="#000000" stroke-width="3.5" stroke-linecap="round"/><path d="M232.36905,112.06845c0,-6.94301 5.62842,-12.57143 12.57143,-12.57143c6.94301,0 12.57143,5.62842 12.57143,12.57143c0,6.94301 -5.62842,12.57143 -12.57143,12.57143c-6.94301,0 -12.57143,-5.62842 -12.57143,-12.57143z" fill="#000000" stroke="none" stroke-width="0" stroke-linecap="butt"/><path d="M237.17825,107.28645l-0.51877,15.12372" fill="none" stroke="#9e7d7d" stroke-width="1.5" stroke-linecap="round"/><path d="M257.71067,105.95952c0.33229,3.19534 -7.32653,-0.17143 -14.81241,0.37835c-6.49593,0.47708 -12.91541,5.30788 -13.20376,2.5351c-0.62063,-5.96812 5.14788,-11.45844 12.88433,-12.26296c7.73645,-0.80453 14.51121,3.38139 15.13184,9.34952z" fill="#bafb00" stroke="none" stroke-width="0" stroke-linecap="butt"/><g><path d="M239.22262,152.93905l-20.73348,8.21191l-0.65996,-8.57698z" fill="#ad5555" stroke="#000000" stroke-width="0" stroke-linecap="round"/><g><path d="M245.88841,167.3691l-3.78174,-13.47428l4.11633,-0.77977l3.78174,13.47428z" fill="#6f6f6f" stroke="none" stroke-width="0" stroke-linecap="butt"/><path d="M316.8271,152.60294l-28.08471,0.55787" fill="none" stroke="#a1a1a1" stroke-width="1.5" stroke-linecap="round"/><path d="M304.47727,153.22288l-85.3642,0.12675" fill="none" stroke="#ad5555" stroke-width="3.5" stroke-linecap="round"/><path d="M284.07639,150.73137l-28.08471,0.55787" fill="none" stroke="#a1a1a1" stroke-width="1.5" stroke-linecap="round"/><path d="M234.99433,162.49492l1.52543,-7.56196l1.26033,0.25424l-1.52545,7.56195z" fill="none" stroke="#a1a1a1" stroke-width="1.5" stroke-linecap="butt"/></g></g><path d="M316.58335,151.4135l13.85805,-9.61123l-0.10046,6.53096l12.61741,1.29213l-13.26343,4.44605l5.66385,6.28276z" fill="#fff6b9" stroke="none" stroke-width="0" stroke-linecap="butt"/></g></g></svg>