<svg version="1.1" xmlns="http://www.w3.org/2000/svg" xmlns:xlink="http://www.w3.org/1999/xlink" width="97.31292" height="127.23481" viewBox="0,0,97.31292,127.23481"><g transform="translate(-214.13526,-98.43186)"><g data-paper-data="{&quot;isPaintingLayer&quot;:true}" fill-rule="nonzero" stroke-linejoin="miter" stroke-miterlimit="10" stroke-dasharray="" stroke-dashoffset="0" style="mix-blend-mode: normal"><path d="M222.95834,222.91667l12.87501,-18.75l4,-24l13,21l4.12499,22.75" fill="none" stroke="#000000" stroke-width="3.5" stroke-linecap="round"/><path d="M240.20834,179.66667l4,-53" fill="none" stroke="#000000" stroke-width="3.5" stroke-linecap="round"/><path d="M233.95834,148.47917l-16.25,-11.25l26.25,-11.5l9.81242,19.87953l-4.92816,19.62046" fill="none" stroke="#000000" stroke-width="3.5" stroke-linecap="round"/><path d="M239.42891,147.02606l-22.28754,-0.76044l2.82351,-8.12575z" fill="#ad5555" stroke="#000000" stroke-width="0" stroke-linecap="round"/><path d="M252.87315,171.39338l-11.10691,-8.51436l2.82632,-3.09261l11.10691,8.51436z" fill="#6f6f6f" stroke="none" stroke-width="0" stroke-linecap="butt"/><path d="M310.69817,177.73865l-25.96639,-10.71488" fill="none" stroke="#a1a1a1" stroke-width="1.5" stroke-linecap="round"/><path d="M220.8317,139.36408l78.29838,34.00626" fill="none" stroke="#ad5555" stroke-width="3.5" stroke-linecap="round"/><path d="M255.45948,152.21686l25.96639,10.71488" fill="none" stroke="#a1a1a1" stroke-width="1.5" stroke-linecap="round"/><path d="M231.73337,154.09513l4.42099,-6.32179l1.05363,0.73683l-4.421,6.32178z" fill="none" stroke="#a1a1a1" stroke-width="1.5" stroke-linecap="butt"/><g><path d="M236.05748,108.88651c3.07638,-6.22425 10.61603,-8.7761 16.84028,-5.69972c6.22425,3.07638 8.7761,10.61603 5.69972,16.84028c-3.07638,6.22425 -10.61603,8.7761 -16.84028,5.69972c-6.22425,-3.07638 -8.7761,-10.61603 -5.69972,-16.84028z" fill="#000000" stroke="none" stroke-width="0" stroke-linecap="butt"/><path d="M242.48767,106.73047l-7.16624,13.32821" fill="none" stroke="#9e7d7d" stroke-width="1.5" stroke-linecap="round"/><path d="M261.48247,114.63862c-1.11793,3.01178 -6.49211,-3.4 -13.44663,-6.22405c-6.03484,-2.45059 -13.93024,-0.9643 -12.96015,-3.5778c2.08804,-5.62528 9.69208,-7.99125 16.9841,-5.28454c7.29203,2.7067 11.51071,9.46111 9.42267,15.0864z" fill="#bafb00" stroke="none" stroke-width="0" stroke-linecap="butt"/></g></g></g></svg>